<?xml version="1.0" encoding="UTF-8"?>
<svg version="1.1" xmlns="http://www.w3.org/2000/svg" width="100%" height="100">
<path d="M0 0 C363.33 0 726.66 0 1101 0 
C1101 33 1101 66 1101 100 
C737.67 100 374.34 100 0 100 
C0 67 0 34 0 0 Z M6 1 
C6 1.33 6 1.66 6 2 
C130.85985027 24.21012791 130.85985027 24.21012791 335.70458984 57.28076172 
C340.18257007 57.88559245 344.65694498 58.51374608 349.13079834 59.14830017 
C389.26302179 64.83009037 429.61052867 69.20482516 470.0625 71.8125 
C470.95121796 71.86989349 471.83993591 71.92728699 472.75558472 71.98641968 
C478.8348812 72.37100307 484.91587473 72.70199898 491 73 
C491.95252655 73.04732269 492.9050531 73.09464539 493.88644409 73.1434021 
C512.90243993 74.05835202 531.90442934 74.20411859 550.9375 74.1875 
C551.70436001 74.18708584 552.47122002 74.18667168 553.26131821 74.18624496 
C578.88594187 74.16897627 604.43294331 73.86470247 630 72 
C631.00828857 71.92694641 632.01657715 71.85389282 633.05541992 71.77862549 
C721.72159902 65.27137238 809.82334151 51.68110281 987 21.125 
C988.06179104 20.93864778 988.06179104 20.93864778 989.14503241 20.74853086 
C1024.11690575 14.6100493 1059.07667308 8.40978686 1094 2 
C1094 1.67 1094 1.34 1094 1 
C734.96 1 375.92 1 6 1 Z " fill="#4B2D2B" transform="translate(0,0)"/>
</svg>
