<?xml version="1.0" encoding="utf-8"?>
<!-- Generator: Adobe Illustrator 24.0.1, SVG Export Plug-In . SVG Version: 6.00 Build 0)  -->
<svg version="1.1" id="Capa_1" xmlns="http://www.w3.org/2000/svg" xmlns:xlink="http://www.w3.org/1999/xlink" x="0px" y="0px"
	 viewBox="0 0 150 55" style="enable-background:new 0 0 150 55;" xml:space="preserve">
<style type="text/css">
	.st0{fill:#F29111;}
	.st1{fill:#DDDDDD;}
</style>
<path class="st0" d="M120.37,42.5H29.63c-2.56,0-4.63-2.07-4.63-4.63V18.13c0-2.56,2.07-4.63,4.63-4.63h90.74
	c2.56,0,4.63,2.07,4.63,4.63v19.74C125,40.43,122.93,42.5,120.37,42.5z"/>
<path class="st1" d="M120.37,41.5H29.63c-2.56,0-4.63-2.07-4.63-4.63V17.13c0-2.56,2.07-4.63,4.63-4.63h90.74
	c2.56,0,4.63,2.07,4.63,4.63v19.74C125,39.43,122.93,41.5,120.37,41.5z"/>
<g>
	<g>
		<path d="M56.25,30.82c-0.14,0-0.22-0.03-0.26-0.1c-0.04-0.07-0.07-0.14-0.1-0.22c-0.2-0.51-0.42-0.99-0.66-1.43
			c-0.23-0.44-0.54-0.89-0.91-1.35c-0.41,0.5-0.75,1.03-1.02,1.58c-0.27,0.55-0.49,1.06-0.67,1.52h-1.02
			c-0.09,0-0.17-0.02-0.25-0.05c-0.08-0.03-0.12-0.1-0.12-0.21c0-0.08,0.03-0.19,0.1-0.35c0.23-0.55,0.52-1.1,0.87-1.65
			c0.35-0.55,0.76-1.07,1.22-1.56c-0.19-0.22-0.4-0.48-0.62-0.77c-0.22-0.29-0.43-0.59-0.63-0.9c-0.2-0.32-0.39-0.64-0.56-0.97
			c-0.17-0.33-0.3-0.65-0.4-0.95h1.28c0.12,0,0.2,0.03,0.25,0.09c0.05,0.06,0.1,0.14,0.14,0.23c0.12,0.28,0.22,0.53,0.33,0.75
			c0.1,0.22,0.21,0.43,0.32,0.62c0.11,0.19,0.23,0.39,0.36,0.59c0.13,0.2,0.28,0.42,0.46,0.65c0.31-0.41,0.61-0.87,0.91-1.39
			c0.29-0.52,0.53-1.03,0.7-1.55h0.99c0.1,0,0.18,0.02,0.25,0.05c0.07,0.03,0.11,0.1,0.11,0.21c0,0.03-0.01,0.07-0.02,0.12
			c-0.01,0.05-0.05,0.14-0.09,0.27c-0.09,0.22-0.21,0.46-0.36,0.72c-0.15,0.26-0.31,0.51-0.49,0.78c-0.18,0.26-0.37,0.51-0.56,0.76
			c-0.19,0.25-0.38,0.47-0.55,0.66c0.59,0.63,1.07,1.29,1.45,1.97c0.38,0.68,0.65,1.3,0.83,1.87H56.25z"/>
		<path d="M59.12,22.25c-0.32,0-0.55-0.06-0.69-0.18c-0.14-0.12-0.21-0.33-0.21-0.62c0-0.28,0.07-0.48,0.21-0.61
			c0.14-0.13,0.37-0.19,0.69-0.19c0.31,0,0.54,0.06,0.68,0.19c0.15,0.13,0.22,0.33,0.22,0.61c0,0.29-0.07,0.5-0.22,0.62
			C59.65,22.19,59.43,22.25,59.12,22.25z M59.86,30.82h-1.12c-0.23,0-0.35-0.11-0.35-0.33v-7.07h1.12c0.23,0,0.35,0.11,0.35,0.33
			V30.82z"/>
		<path d="M64.96,30.78c-0.22,0.06-0.43,0.1-0.63,0.13c-0.2,0.03-0.4,0.04-0.62,0.04c-0.7,0-1.2-0.15-1.52-0.47
			c-0.32-0.31-0.47-0.8-0.47-1.47v-4.44h-0.51c-0.23,0-0.35-0.11-0.35-0.33v-0.83h0.89l0.07-1.92h1.02c0.23,0,0.35,0.11,0.35,0.33
			v1.59h1.43c0.11,0,0.19,0.03,0.25,0.09c0.06,0.06,0.09,0.14,0.09,0.25v0.83h-1.77v4.36c0,0.26,0.04,0.47,0.13,0.61
			c0.09,0.15,0.26,0.22,0.52,0.22c0.16,0,0.3,0,0.41-0.01c0.11,0,0.22-0.01,0.31-0.01c0.26,0,0.39,0.11,0.39,0.33V30.78z"/>
		<path d="M67.13,23.75c0.1,0.56,0.19,1.05,0.28,1.47c0.09,0.42,0.19,0.83,0.31,1.24s0.26,0.84,0.44,1.31
			c0.18,0.47,0.4,1.02,0.67,1.66c0.37-0.88,0.67-1.83,0.91-2.85c0.24-1.02,0.43-2.07,0.56-3.16h1.09c0.13,0,0.21,0.03,0.25,0.08
			c0.04,0.05,0.06,0.12,0.06,0.2c0,0.09-0.01,0.21-0.04,0.36c-0.02,0.16-0.05,0.3-0.07,0.42c-0.16,0.97-0.37,1.87-0.63,2.71
			c-0.25,0.84-0.5,1.57-0.76,2.19c-0.32,0.8-0.63,1.46-0.92,1.97c-0.29,0.51-0.58,0.91-0.87,1.21c-0.29,0.3-0.57,0.51-0.86,0.62
			c-0.29,0.11-0.58,0.17-0.88,0.17c-0.12,0-0.25-0.01-0.39-0.02c-0.15-0.01-0.25-0.04-0.32-0.08c-0.17-0.08-0.25-0.21-0.25-0.39
			v-0.67c0.12,0.01,0.22,0.01,0.31,0.01c0.09,0,0.17,0,0.25,0c0.24,0,0.46-0.03,0.64-0.09c0.18-0.06,0.34-0.16,0.47-0.28
			c0.14-0.12,0.26-0.28,0.38-0.47c0.12-0.19,0.24-0.41,0.38-0.66c-0.32-0.55-0.62-1.13-0.89-1.74c-0.27-0.61-0.52-1.22-0.74-1.85
			c-0.22-0.63-0.41-1.25-0.57-1.87c-0.16-0.62-0.28-1.23-0.36-1.83h1.18c0.15,0,0.24,0.04,0.28,0.11
			C67.08,23.6,67.11,23.67,67.13,23.75z"/>
		<path d="M75.69,30.91c-0.42,0-0.76-0.05-1.03-0.15c-0.27-0.1-0.5-0.2-0.7-0.31v2.84h-1.12c-0.23,0-0.35-0.11-0.35-0.33v-4.9
			c0-0.55,0-1.12,0.01-1.7c0.01-0.58,0.03-1.16,0.06-1.75h-0.26c-0.19,0-0.29-0.11-0.29-0.32v-0.7c0.15-0.03,0.33-0.06,0.55-0.09
			c0.22-0.03,0.45-0.06,0.71-0.09c0.25-0.02,0.52-0.05,0.8-0.07c0.28-0.02,0.55-0.03,0.81-0.03c0.62,0,1.15,0.06,1.6,0.18
			c0.45,0.12,0.81,0.33,1.11,0.62s0.5,0.68,0.64,1.16c0.14,0.48,0.2,1.08,0.2,1.81c0,1.32-0.22,2.29-0.67,2.9
			C77.31,30.6,76.62,30.91,75.69,30.91z M75.29,29.76c0.29,0,0.54-0.04,0.75-0.12c0.21-0.08,0.38-0.23,0.52-0.43
			c0.14-0.2,0.23-0.48,0.3-0.82c0.06-0.34,0.09-0.78,0.09-1.3c0-0.47-0.03-0.88-0.09-1.21c-0.06-0.33-0.16-0.61-0.32-0.81
			c-0.16-0.21-0.37-0.36-0.63-0.45c-0.27-0.09-0.61-0.14-1.03-0.14c-0.12,0-0.26,0-0.44,0.01c-0.17,0.01-0.33,0.02-0.48,0.04v4.93
			c0.19,0.1,0.39,0.17,0.6,0.23C74.76,29.73,75.01,29.76,75.29,29.76z"/>
		<path d="M81.54,30.95c-0.76,0-1.32-0.21-1.69-0.63c-0.37-0.42-0.55-0.99-0.55-1.73c0-0.46,0.07-0.83,0.21-1.13
			c0.14-0.3,0.34-0.54,0.6-0.72c0.26-0.18,0.56-0.31,0.91-0.38c0.35-0.07,0.73-0.11,1.13-0.11h1.5v-0.49c0-0.5-0.13-0.85-0.39-1.03
			c-0.26-0.18-0.71-0.28-1.34-0.28c-0.43,0-0.81,0.02-1.15,0.07c-0.34,0.04-0.56,0.07-0.67,0.07c-0.13,0-0.22-0.03-0.27-0.09
			c-0.05-0.06-0.08-0.14-0.08-0.24v-0.63c0.34-0.11,0.72-0.19,1.15-0.26c0.43-0.07,0.86-0.1,1.31-0.1c0.55,0,1.01,0.06,1.38,0.18
			c0.37,0.12,0.66,0.29,0.89,0.52c0.22,0.22,0.38,0.49,0.47,0.81c0.09,0.32,0.14,0.67,0.14,1.06v4.99H84.2
			c-0.17,0-0.27-0.04-0.31-0.11c-0.04-0.07-0.07-0.16-0.09-0.25l-0.06-0.44c-0.25,0.24-0.56,0.46-0.91,0.65
			C82.49,30.86,82.05,30.95,81.54,30.95z M82.11,27.29c-0.29,0-0.53,0.03-0.73,0.09c-0.19,0.06-0.35,0.15-0.46,0.26
			c-0.11,0.11-0.19,0.24-0.23,0.4c-0.04,0.16-0.07,0.32-0.07,0.51c0,0.45,0.11,0.77,0.32,0.97c0.21,0.2,0.54,0.31,0.97,0.31
			c0.39,0,0.72-0.08,1-0.23c0.28-0.15,0.52-0.32,0.73-0.52v-1.8H82.11z"/>
		<path d="M87.46,23.75c0.1,0.56,0.19,1.05,0.28,1.47c0.09,0.42,0.19,0.83,0.31,1.24s0.26,0.84,0.44,1.31
			c0.18,0.47,0.4,1.02,0.67,1.66c0.37-0.88,0.67-1.83,0.91-2.85c0.24-1.02,0.43-2.07,0.56-3.16h1.09c0.13,0,0.21,0.03,0.25,0.08
			c0.04,0.05,0.06,0.12,0.06,0.2c0,0.09-0.01,0.21-0.04,0.36c-0.02,0.16-0.05,0.3-0.07,0.42c-0.16,0.97-0.37,1.87-0.63,2.71
			c-0.25,0.84-0.5,1.57-0.76,2.19c-0.32,0.8-0.63,1.46-0.92,1.97c-0.29,0.51-0.58,0.91-0.87,1.21c-0.29,0.3-0.57,0.51-0.86,0.62
			c-0.29,0.11-0.58,0.17-0.88,0.17c-0.12,0-0.25-0.01-0.39-0.02s-0.25-0.04-0.32-0.08c-0.17-0.08-0.25-0.21-0.25-0.39v-0.67
			c0.12,0.01,0.22,0.01,0.31,0.01c0.09,0,0.17,0,0.25,0c0.24,0,0.46-0.03,0.64-0.09c0.18-0.06,0.34-0.16,0.47-0.28
			c0.14-0.12,0.26-0.28,0.38-0.47c0.12-0.19,0.24-0.41,0.38-0.66c-0.32-0.55-0.62-1.13-0.89-1.74c-0.27-0.61-0.52-1.22-0.74-1.85
			c-0.22-0.63-0.41-1.25-0.57-1.87c-0.16-0.62-0.28-1.23-0.36-1.83h1.18c0.15,0,0.24,0.04,0.28,0.11
			C87.41,23.6,87.44,23.67,87.46,23.75z"/>
	</g>
	<g>
		<g>
			<path class="st0" d="M46.21,32.82c2.46-3.61,2.76-6.13,2.76-6.13s-1.29,2.39-3.59,2.97c-1.93,0.49-2.53-0.15-3.93-0.37
				c-0.22-0.05-0.45-0.07-0.68-0.07c-0.03,0-0.06,0-0.1,0c-0.05,0-0.1,0-0.16,0v0.01c-1.69,0.13-3.02,1.54-3.02,3.26
				c0,1.72,1.33,3.13,3.02,3.26v0.01C40.52,35.78,43.76,36.43,46.21,32.82z"/>
		</g>
		<g>
			<path class="st0" d="M33.16,34.24c3.61,2.46,6.13,2.76,6.13,2.76s-2.39-1.29-2.97-3.59c-0.49-1.93,0.15-2.53,0.37-3.93
				c0.05-0.22,0.07-0.45,0.07-0.68c0-0.03,0-0.06,0-0.1c0-0.05,0-0.1,0-0.16h-0.01c-0.13-1.69-1.54-3.02-3.26-3.02
				c-1.72,0-3.13,1.33-3.26,3.02H30.2C30.2,28.54,29.55,31.78,33.16,34.24z"/>
		</g>
		<g>
			<path class="st0" d="M31.74,21.18c-2.46,3.61-2.76,6.13-2.76,6.13s1.29-2.39,3.59-2.97c1.93-0.49,2.53,0.15,3.93,0.37
				c0.22,0.05,0.45,0.07,0.68,0.07c0.03,0,0.06,0,0.1,0c0.05,0,0.1,0,0.16,0v-0.01c1.69-0.13,3.02-1.54,3.02-3.26
				c0-1.72-1.33-3.13-3.02-3.26v-0.01C37.44,18.22,34.2,17.57,31.74,21.18z"/>
		</g>
		<g>
			<path class="st0" d="M44.8,19.76C41.19,17.3,38.67,17,38.67,17s2.39,1.29,2.97,3.59c0.49,1.93-0.15,2.53-0.37,3.93
				c-0.05,0.22-0.07,0.45-0.07,0.68c0,0.03,0,0.06,0,0.1c0,0.05,0,0.1,0,0.16h0.01c0.13,1.69,1.54,3.02,3.26,3.02
				c1.72,0,3.13-1.33,3.26-3.02h0.01C47.75,25.46,48.41,22.22,44.8,19.76z"/>
		</g>
	</g>
</g>
</svg>
